<svg width="305" height="112" viewBox="0 0 305 112" fill="none" xmlns="http://www.w3.org/2000/svg">
<path d="M0.4389 107.323V100.114C0.4389 95.1625 1.82548 90.9391 4.59863 87.4439L51.0125 25.1851V24.3113H4.59759C1.53253 24.3113 0 22.7093 0 19.5053V5.0875C0 2.02917 1.53253 0.5 4.59759 0.5H80.7873C83.8524 0.5 85.385 2.02917 85.385 5.0875V18.1946C85.385 22.8549 84.2173 26.6414 81.882 29.5541L36.5628 87.2254V88.0992H80.7873C83.8524 88.0992 85.385 89.7012 85.385 92.9052V107.323C85.385 110.381 83.8524 111.91 80.7873 111.91H5.03649C1.97143 111.91 0.4389 110.381 0.4389 107.323Z" fill="#0A203B"/>
<path d="M180.194 111.91H140.786C129.255 111.91 120.352 108.852 114.076 102.736C107.8 96.6189 104.662 87.808 104.662 76.3028V36.1077C104.662 24.6025 107.8 15.7916 114.076 9.67499C120.352 3.55833 129.255 0.5 140.786 0.5H158.082C169.612 0.5 178.515 3.55833 184.791 9.67499C191.068 15.7916 194.206 24.6025 194.206 36.1077V51.6009C194.206 60.7551 186.813 68.1943 177.639 68.2521C164.192 68.3367 145.71 68.4386 134.656 68.4386C132.904 68.4386 132.029 69.2395 132.029 70.8415V75.6475C132.029 80.1621 132.977 83.4389 134.875 85.4778C136.918 87.3711 140.275 88.3177 144.946 88.3177H180.194C183.259 88.3177 184.791 89.9197 184.791 93.1236V107.541C184.791 109.143 184.427 110.309 183.697 111.037C183.113 111.619 181.945 111.91 180.194 111.91ZM134.656 49.8701H164.431C166.036 49.8701 166.839 49.0692 166.839 47.4672V36.9815C166.839 32.3212 165.89 29.0444 163.993 27.1511C162.095 25.2579 158.811 24.3113 154.141 24.3113H144.946C140.275 24.3113 136.991 25.2579 135.094 27.1511C133.196 29.0444 132.247 32.3212 132.247 36.9815V47.4672C132.247 49.0692 133.05 49.8701 134.656 49.8701Z" fill="#0A203B"/>
<path d="M290.636 111.91H251.228C239.698 111.91 230.794 108.852 224.518 102.736C218.242 96.6189 215.104 87.808 215.104 76.3028V36.1077C215.104 24.6025 218.242 15.7916 224.518 9.67498C230.794 3.55833 239.698 0.5 251.228 0.5H268.524C280.054 0.5 288.958 3.55833 295.234 9.67498C301.51 15.7916 304.648 24.6025 304.648 36.1077V51.6009C304.648 60.7551 297.255 68.1943 288.081 68.2521C274.634 68.3367 256.152 68.4386 245.098 68.4386C243.347 68.4386 242.471 69.2395 242.471 70.8415V75.6475C242.471 80.1621 243.42 83.4389 245.317 85.4778C247.36 87.3711 250.717 88.3177 255.388 88.3177H290.636C293.701 88.3177 295.234 89.9197 295.234 93.1236V107.541C295.234 109.143 294.869 110.309 294.139 111.037C293.555 111.619 292.388 111.91 290.636 111.91ZM245.098 49.8701H274.873C276.479 49.8701 277.281 49.0691 277.281 47.4672V36.9815C277.281 32.3212 276.333 29.0444 274.435 27.1511C272.538 25.2579 269.254 24.3113 264.583 24.3113H255.388C250.717 24.3113 247.433 25.2579 245.536 27.1511C243.639 29.0444 242.69 32.3212 242.69 36.9815V47.4672C242.69 49.0691 243.493 49.8701 245.098 49.8701Z" fill="#0A203B"/>
</svg>
