<svg width="1123" height="353" viewBox="0 0 1123 353" fill="none" xmlns="http://www.w3.org/2000/svg">
<path d="M812.781 228.688V221.333C812.781 216.281 814.193 211.972 817.016 208.406L864.269 144.882V143.991H817.015C813.895 143.991 812.335 142.356 812.335 139.087V124.376C812.335 121.256 813.895 119.696 817.015 119.696H894.582C897.702 119.696 899.262 121.256 899.262 124.376V137.75C899.262 142.505 898.073 146.368 895.696 149.34L849.558 208.183V209.074H894.582C897.702 209.074 899.262 210.709 899.262 213.978V228.688C899.262 231.809 897.702 233.369 894.582 233.369H817.462C814.342 233.369 812.781 231.809 812.781 228.688Z" fill="#0A203B"/>
<path d="M995.784 233.369H955.664C943.925 233.369 934.861 230.249 928.472 224.008C922.082 217.767 918.888 208.777 918.888 197.038V156.027C918.888 144.288 922.082 135.298 928.472 129.057C934.861 122.816 943.925 119.696 955.664 119.696H973.272C985.011 119.696 994.075 122.816 1000.46 129.057C1006.85 135.298 1010.05 144.288 1010.05 156.027V171.835C1010.05 181.175 1002.52 188.765 993.183 188.824C979.493 188.91 960.677 189.014 949.423 189.014C947.64 189.014 946.749 189.831 946.749 191.466V196.37C946.749 200.976 947.714 204.319 949.646 206.4C951.726 208.331 955.144 209.297 959.899 209.297H995.784C998.905 209.297 1000.46 210.932 1000.46 214.201V228.911C1000.46 230.546 1000.09 231.735 999.35 232.478C998.756 233.072 997.567 233.369 995.784 233.369ZM949.423 170.069H979.736C981.371 170.069 982.188 169.251 982.188 167.617V156.918C982.188 152.163 981.222 148.82 979.29 146.888C977.359 144.956 974.015 143.991 969.26 143.991H959.899C955.144 143.991 951.801 144.956 949.869 146.888C947.937 148.82 946.971 152.163 946.971 156.918V167.617C946.971 169.251 947.789 170.069 949.423 170.069Z" fill="#0A203B"/>
<path d="M417.34 119.696C414.63 119.696 412.434 121.892 412.434 124.602L412.434 139.307C412.434 142.017 414.63 144.214 417.34 144.214H421.929C423.713 144.214 424.604 145.031 424.604 146.665L424.604 227.636C424.604 230.345 426.801 232.542 429.511 232.542H448.218C450.928 232.542 453.124 230.345 453.124 227.636V146.665C453.124 145.031 454.016 144.214 455.799 144.214H476.751C481.506 144.214 484.849 145.254 486.781 147.334C488.712 149.266 489.678 152.609 489.678 157.364V227.636C489.678 230.345 491.875 232.542 494.584 232.542H513.173C515.883 232.542 518.08 230.345 518.08 227.636V146.665C518.08 145.031 518.971 144.214 520.754 144.214H541.706C546.461 144.214 549.804 145.254 551.736 147.334C553.668 149.266 554.633 152.609 554.633 157.364V227.636C554.633 230.345 556.83 232.542 559.54 232.542H578.034C580.744 232.542 582.94 230.345 582.94 227.636V156.027C582.94 144.288 579.746 135.298 573.356 129.057C566.967 122.816 557.903 119.696 546.164 119.696H417.34Z" fill="#0A203B"/>
<path d="M792.709 139.307C792.709 142.017 790.513 144.214 787.803 144.214H772.614C767.859 144.214 764.516 145.254 762.584 147.334C760.652 149.266 759.687 152.609 759.687 157.364V227.636C759.687 230.345 757.49 232.542 754.78 232.542H736.286C733.576 232.542 731.38 230.345 731.38 227.636V156.027C731.38 144.288 734.575 135.298 740.964 129.057C747.353 122.816 756.418 119.696 768.156 119.696H787.803C790.513 119.696 792.709 121.892 792.709 124.602V139.307Z" fill="#0A203B"/>
<path fill-rule="evenodd" clip-rule="evenodd" d="M604.067 163.312C604.067 139.012 623.767 119.312 648.067 119.312H652.662C658.601 119.312 664.266 120.489 669.436 122.623C670.332 121.451 671.745 120.696 673.334 120.696H691.828C694.538 120.696 696.735 122.892 696.735 125.602V194.874C696.735 199.629 697.7 202.972 699.632 204.904C700.97 206.345 702.985 207.286 705.677 207.729C707.857 208.088 709.662 209.815 709.662 212.024V228.542C709.662 230.751 707.863 232.55 705.655 232.494C690.343 232.111 684.758 229.412 679.294 224.397C671.9 230.027 662.671 233.369 652.662 233.369H648.067C623.767 233.369 604.067 213.67 604.067 189.369V163.312ZM648.067 148.312H652.662C660.946 148.312 667.662 155.028 667.662 163.312V189.369C667.662 197.653 660.946 204.369 652.662 204.369H648.067C639.783 204.369 633.067 197.653 633.067 189.369V163.312C633.067 155.028 639.783 148.312 648.067 148.312Z" fill="#0A203B"/>
<path d="M1108.22 233.369H1068.1C1056.36 233.369 1047.3 230.249 1040.91 224.008C1034.52 217.767 1031.33 208.777 1031.33 197.038V156.027C1031.33 144.288 1034.52 135.298 1040.91 129.057C1047.3 122.816 1056.36 119.696 1068.1 119.696H1085.71C1097.45 119.696 1106.51 122.816 1112.9 129.057C1119.29 135.298 1122.49 144.288 1122.49 156.027V171.835C1122.49 181.175 1114.96 188.765 1105.62 188.824C1091.93 188.91 1073.12 189.014 1061.86 189.014C1060.08 189.014 1059.19 189.831 1059.19 191.466V196.37C1059.19 200.976 1060.15 204.319 1062.08 206.4C1064.16 208.331 1067.58 209.297 1072.34 209.297H1108.22C1111.34 209.297 1112.9 210.932 1112.9 214.201V228.911C1112.9 230.546 1112.53 231.735 1111.79 232.478C1111.19 233.072 1110.01 233.369 1108.22 233.369ZM1061.86 170.069H1092.17C1093.81 170.069 1094.63 169.251 1094.63 167.617V156.918C1094.63 152.163 1093.66 148.82 1091.73 146.888C1089.8 144.956 1086.45 143.991 1081.7 143.991H1072.34C1067.58 143.991 1064.24 144.956 1062.31 146.888C1060.38 148.82 1059.41 152.163 1059.41 156.918V167.617C1059.41 169.251 1060.23 170.069 1061.86 170.069Z" fill="#0A203B"/>
<circle r="176.341" transform="matrix(-1 0 0 1 176.341 176.341)" fill="#0A203B"/>
<path d="M140.398 191.243C142.613 201.004 144.963 211.36 148.569 221.539L137.697 240.002C127.331 257.957 104.371 264.109 86.4154 253.742C68.4599 243.375 62.3078 220.416 72.6745 202.461L109.996 137.641C120.733 144.641 129.501 154.465 133.952 166.963C136.532 174.205 138.41 182.485 140.398 191.243Z" fill="url(#paint0_linear_1133:12271)"/>
<path d="M233.688 222.408C233.743 222.3 233.798 222.192 233.854 222.084L266.675 164.06L286.513 129.158C298.224 109.751 358.329 165.673 309.113 241.743C296.82 260.743 274.877 264.223 256.832 253.805C247.305 248.304 242.348 238.808 237.407 229.343C236.189 227.009 234.972 224.678 233.688 222.408Z" fill="url(#paint1_linear_1133:12271)"/>
<path d="M189.706 258.783C213.429 258.783 224.13 241.078 233.854 222.084L267.79 162.091C256.463 182.579 217.365 186.046 200.889 163.269C192.347 151.462 185 136.862 179.164 126.754C147.946 72.6818 97.9257 94.2307 67.6392 105.913C63.6379 107.456 61.8233 111.177 61.8233 115.125V115.729C61.8233 121.991 68.3699 124.654 74.5992 125.293C99.1423 127.813 125.096 142.092 133.953 166.963C141.181 187.261 142.909 215.697 156.944 240.007C163.936 252.117 176.656 258.783 189.706 258.783Z" fill="url(#paint2_linear_1133:12271)"/>
<path d="M31.8848 124.701C31.8848 129.319 35.6287 133.063 40.2471 133.063C44.8655 133.063 48.6094 129.319 48.6094 124.701C48.6094 120.083 44.8655 116.339 40.2471 116.339C35.6287 116.339 31.8848 120.083 31.8848 124.701Z" fill="url(#paint3_linear_1133:12271)"/>
<path d="M252.388 113.411C252.388 119.943 257.683 125.238 264.215 125.238C270.747 125.238 276.042 119.943 276.042 113.411C276.042 106.88 270.747 101.584 264.215 101.584C257.683 101.584 252.388 106.88 252.388 113.411Z" fill="url(#paint4_linear_1133:12271)"/>
<defs>
<linearGradient id="paint0_linear_1133:12271" x1="181.608" y1="85.7317" x2="92.0464" y2="254.651" gradientUnits="userSpaceOnUse">
<stop stop-color="#3E00EE"/>
<stop offset="1" stop-color="#00F5D3"/>
</linearGradient>
<linearGradient id="paint1_linear_1133:12271" x1="197.987" y1="161.978" x2="316.25" y2="241.737" gradientUnits="userSpaceOnUse">
<stop stop-color="#3E00EE"/>
<stop offset="1" stop-color="#00F5D3"/>
</linearGradient>
<linearGradient id="paint2_linear_1133:12271" x1="146.052" y1="169.851" x2="338.035" y2="321.048" gradientUnits="userSpaceOnUse">
<stop stop-color="#00F5D3"/>
<stop offset="0.203125" stop-color="#00F5D3"/>
<stop offset="1" stop-color="#3E00EE"/>
</linearGradient>
<linearGradient id="paint3_linear_1133:12271" x1="146.052" y1="169.851" x2="338.035" y2="321.048" gradientUnits="userSpaceOnUse">
<stop stop-color="#00F5D3"/>
<stop offset="0.203125" stop-color="#00F5D3"/>
<stop offset="1" stop-color="#3E00EE"/>
</linearGradient>
<linearGradient id="paint4_linear_1133:12271" x1="146.052" y1="169.851" x2="338.035" y2="321.048" gradientUnits="userSpaceOnUse">
<stop stop-color="#00F5D3"/>
<stop offset="0.203125" stop-color="#00F5D3"/>
<stop offset="1" stop-color="#3E00EE"/>
</linearGradient>
</defs>
</svg>
