<svg width="374" height="113" viewBox="0 0 374 113" fill="none" xmlns="http://www.w3.org/2000/svg">
<path d="M4.82393 0.376464C2.15975 0.376464 1.52218e-06 2.53427 1.28927e-06 5.19607L0 19.6411C-2.3291e-07 22.3029 2.15974 24.4607 4.82392 24.4607H9.33633C11.0895 24.4607 11.9661 25.2636 11.9661 26.8692L11.9661 106.408C11.9661 109.07 14.1258 111.227 16.79 111.227H35.1831C37.8473 111.227 40.007 109.07 40.007 106.408V26.8692C40.007 25.2636 40.8836 24.4607 42.6368 24.4607H63.2363C67.9114 24.4607 71.1985 25.4825 73.0978 27.526C74.997 29.4236 75.9466 32.7078 75.9466 37.3787V106.408C75.9466 109.07 78.1064 111.227 80.7706 111.227H99.0471C101.711 111.227 103.871 109.07 103.871 106.408V26.8692C103.871 25.2636 104.748 24.4607 106.501 24.4607H127.1C131.775 24.4607 135.062 25.4825 136.962 27.526C138.861 29.4236 139.811 32.7078 139.811 37.3787V106.408C139.811 109.07 141.97 111.227 144.635 111.227H162.818C165.482 111.227 167.642 109.07 167.642 106.408V36.065C167.642 24.5337 164.501 15.7028 158.219 9.57229C151.937 3.44174 143.025 0.376464 131.483 0.376464H4.82393Z" fill="#FFB803"/>
<path d="M373.886 19.6411C373.886 22.3029 371.726 24.4607 369.062 24.4607H354.129C349.454 24.4607 346.166 25.4825 344.267 27.526C342.368 29.4236 341.418 32.7078 341.418 37.3787V106.408C341.418 109.07 339.259 111.227 336.594 111.227H318.411C315.747 111.227 313.587 109.07 313.587 106.408V36.065C313.587 24.5337 316.728 15.7028 323.01 9.57229C329.292 3.44174 338.204 0.376464 349.746 0.376464H369.062C371.726 0.376464 373.886 2.53428 373.886 5.19608V19.6411Z" fill="#FFB803"/>
<path fill-rule="evenodd" clip-rule="evenodd" d="M188.414 43.222C188.414 19.3512 207.782 0 231.675 0H236.192C242.031 0 247.601 1.15612 252.684 3.25176C253.565 2.10099 254.954 1.35878 256.517 1.35878H274.7C277.364 1.35878 279.524 3.5166 279.524 6.17839V74.2253C279.524 78.8961 280.474 82.1804 282.373 84.0779C283.688 85.4932 285.669 86.4184 288.316 86.8535C290.459 87.2058 292.234 88.9024 292.234 91.0725V107.298C292.234 109.468 290.466 111.235 288.294 111.181C273.24 110.804 267.749 108.153 262.376 103.226C255.107 108.757 246.033 112.04 236.192 112.04H231.675C207.782 112.04 188.414 92.6888 188.414 68.8179V43.222ZM231.675 28.4872H236.192C244.337 28.4872 250.94 35.0843 250.94 43.222V68.8179C250.94 76.9557 244.337 83.5527 236.192 83.5527H231.675C223.529 83.5527 216.927 76.9557 216.927 68.8179V43.222C216.927 35.0842 223.529 28.4872 231.675 28.4872Z" fill="#FFB803"/>
</svg>
